<?xml version="1.0" encoding="iso-8859-1"?>
<!-- Generator: Adobe Illustrator 19.0.0, SVG Export Plug-In . SVG Version: 6.00 Build 0)  -->
<svg version="1.1" id="Capa_1" xmlns="http://www.w3.org/2000/svg" xmlns:xlink="http://www.w3.org/1999/xlink" x="0px" y="0px"
	 viewBox="0 0 512 512" style="enable-background:new 0 0 512 512;" xml:space="preserve">
<polygon style="fill:#C6E2E7;" points="241,494.9 166,494.299 91.3,493.999 130.3,296.1 166,325.499 224.801,373.799 "/>
<polygon style="fill:#8EBAC5;" points="241,494.9 166,494.299 166,325.499 224.801,373.799 "/>
<g>
	<path style="fill:#00C0F1;" d="M481,165h-30c0-36-14.099-69.901-39.6-95.4C385.901,44.099,352,30,316,30V0
		c44.099,0,85.499,17.1,116.7,48.3C463.9,79.499,481,120.899,481,165z"/>
	<path style="fill:#00C0F1;" d="M421,165h-30c0-20.101-7.8-39-21.899-53.101C355,97.8,336.099,90,316,90V60
		c28.2,0,54.3,11.1,74.099,30.899C409.9,110.7,421,136.8,421,165z"/>
</g>
<g>
	<polygon style="fill:#00607F;" points="305.501,196.8 262.899,239.099 252.4,228.6 241.901,218.099 284.2,175.499 	"/>
	<rect x="31" y="482" style="fill:#00607F;" width="270" height="30"/>
</g>
<polygon style="fill:#00465F;" points="305.501,196.8 262.899,239.099 252.4,228.6 284.2,196.8 295,186.299 "/>
<g>
	<path style="fill:#00ABE9;" d="M390.099,90.899C409.9,110.7,421,136.8,421,165h-30c0-20.101-7.8-39-21.899-53.101L390.099,90.899z"
		/>
	<path style="fill:#00ABE9;" d="M481,165h-30c0-36-14.099-69.901-39.6-95.4l21.3-21.3C463.9,79.499,481,120.899,481,165z"/>
</g>
<rect x="166" y="482" style="fill:#00465F;" width="135" height="30"/>
<path style="fill:#00C0F1;" d="M347.8,133.2c-17.401-17.701-46.199-17.701-63.6,0c-17.701,17.399-17.701,46.199,0,63.6
	c17.401,17.699,46.199,17.401,63.6,0C365.501,179.399,365.501,150.599,347.8,133.2z"/>
<path style="fill:#00ABE9;" d="M284.2,196.8l63.6-63.6c17.701,17.399,17.701,46.199,0,63.6
	C330.399,214.2,301.601,214.499,284.2,196.8z"/>
<path style="fill:#DEECF1;" d="M124.9,80.099l-10.201,14.399c-24,33.6-35.999,73.2-35.999,112.8c0,43.801,14.7,87.301,43.2,122.701
	c2.699,3.3,5.999,7.2,7.798,9c2.1,2.401,4.2,4.501,6.301,6c66.899,66.899,173.101,76.5,250.499,21.299l14.401-10.199L124.9,80.099z"
	/>
<path style="fill:#C6E2E7;" d="M262.899,218.099L400.901,356.1L386.5,366.299C309.101,421.5,202.899,411.899,136,345
	L262.899,218.099z"/>
<g>
</g>
<g>
</g>
<g>
</g>
<g>
</g>
<g>
</g>
<g>
</g>
<g>
</g>
<g>
</g>
<g>
</g>
<g>
</g>
<g>
</g>
<g>
</g>
<g>
</g>
<g>
</g>
<g>
</g>
</svg>
